<svg width="402" height="402" viewBox="0 0 402 402" fill="none" xmlns="http://www.w3.org/2000/svg">
<path d="M201 384.256C305.611 384.256 390.414 335.294 390.414 274.896C390.414 214.498 305.611 165.536 201 165.536C96.3893 165.536 11.5856 214.498 11.5856 274.896C11.5856 335.294 96.3893 384.256 201 384.256Z" fill="#F0F0F0"/>
<path d="M161.805 357.764C197.879 357.764 227.122 340.882 227.122 320.056C227.122 299.231 197.879 282.349 161.805 282.349C125.731 282.349 96.488 299.231 96.488 320.056C96.488 340.882 125.731 357.764 161.805 357.764Z" fill="#E0E0E0"/>
<path d="M347.553 272.878L339.891 268.456C339.891 268.456 338.018 252.054 339.264 239.351C341.017 221.502 352.546 200.019 366.294 205.068C380.043 210.117 359.991 228.288 355.529 243.427C351.067 258.566 347.553 272.878 347.553 272.878Z" fill="#19D773"/>
<path opacity="0.15" d="M347.553 272.878L339.891 268.456C339.891 268.456 338.018 252.054 339.264 239.351C341.017 221.502 352.546 200.019 366.294 205.068C380.043 210.117 359.991 228.288 355.529 243.427C351.067 258.566 347.553 272.878 347.553 272.878Z" fill="black"/>
<path d="M343.525 271.02C343.647 271.014 343.762 270.96 343.845 270.87C343.928 270.779 343.972 270.66 343.967 270.538C342.625 230.877 362.371 210.921 362.564 210.728C362.651 210.641 362.7 210.522 362.7 210.399C362.7 210.275 362.651 210.157 362.564 210.069C362.521 210.026 362.471 209.992 362.415 209.969C362.359 209.945 362.299 209.933 362.238 209.933C362.178 209.933 362.118 209.945 362.062 209.969C362.006 209.992 361.955 210.026 361.913 210.069C361.704 210.262 341.676 230.507 343.035 270.57C343.037 270.632 343.051 270.693 343.077 270.749C343.103 270.806 343.14 270.856 343.185 270.898C343.231 270.94 343.285 270.973 343.343 270.993C343.401 271.014 343.463 271.024 343.525 271.02Z" fill="white"/>
<path d="M352.369 275.635L346.918 272.492C346.918 272.492 345.985 261.236 351.509 247.568C356.333 235.668 368.232 225.787 374.23 227.862C380.228 229.936 380.075 234.189 377.148 238.651C374.222 243.114 356.445 253.734 352.369 275.635Z" fill="#19D773"/>
<path d="M349.491 274.445C349.614 274.443 349.731 274.394 349.818 274.307C349.905 274.22 349.955 274.102 349.957 273.979C349.845 248.894 373.394 231.946 373.635 231.777C373.685 231.743 373.728 231.698 373.761 231.647C373.793 231.596 373.815 231.538 373.825 231.478C373.835 231.418 373.832 231.356 373.817 231.297C373.803 231.238 373.776 231.182 373.739 231.134C373.668 231.035 373.561 230.967 373.441 230.946C373.321 230.925 373.197 230.952 373.096 231.021C372.855 231.19 348.92 248.428 349.024 273.979C349.024 274.103 349.074 274.221 349.161 274.309C349.248 274.396 349.367 274.445 349.491 274.445Z" fill="white"/>
<path d="M64.0466 263.029L71.1218 258.253C71.1218 258.253 74.2333 239.761 71.3389 223.448C67.2707 200.566 51.456 192.96 45.828 195.372C40.2 197.784 38.994 204.594 49.5023 217.651C55.7333 225.329 63.8296 241.723 64.0466 263.029Z" fill="#19D773"/>
<g opacity="0.15">
<path opacity="0.15" d="M64.0466 263.029L71.1218 258.253C71.1218 258.253 74.2333 239.761 71.3389 223.448C67.2707 200.566 51.456 192.96 45.828 195.372C40.2 197.784 38.994 204.594 49.5023 217.651C55.7333 225.329 63.8296 241.723 64.0466 263.029Z" fill="black"/>
</g>
<path d="M66.4747 253.863H66.4024C66.3301 253.858 66.2596 253.839 66.1955 253.805C66.1314 253.771 66.0751 253.725 66.0303 253.668C65.9855 253.611 65.9533 253.545 65.9357 253.475C65.918 253.404 65.9154 253.331 65.928 253.26C68.4847 231.721 59.3915 208.341 49.4943 199.038C49.399 198.942 49.3456 198.812 49.3456 198.676C49.3456 198.541 49.399 198.411 49.4943 198.315C49.5414 198.267 49.5977 198.228 49.6598 198.202C49.722 198.176 49.7887 198.163 49.8561 198.163C49.9234 198.163 49.9902 198.176 50.0523 198.202C50.1144 198.228 50.1707 198.267 50.2179 198.315C60.3 207.786 69.5621 231.552 66.9732 253.405C66.958 253.528 66.8996 253.642 66.8082 253.726C66.7169 253.809 66.5987 253.858 66.4747 253.863Z" fill="white"/>
<path d="M45.5225 275.523C44.3969 276.198 41.1166 273.762 40.208 273.175C38.651 272.158 37.3827 270.757 36.5257 269.107C35.5644 267.235 35.2076 265.112 35.5046 263.029C35.6693 261.942 35.9084 260.867 36.2202 259.813C36.5016 258.759 36.783 257.706 37.0242 256.645C37.3808 255.613 37.5177 254.517 37.4262 253.429C37.1126 251.282 35.175 249.811 33.4062 248.549C31.4605 247.142 29.3862 245.284 29.3862 242.695C29.4854 240.661 30.2639 238.719 31.5972 237.18C32.8032 235.572 34.2504 234.173 35.3358 232.493C36.1845 231.328 36.6177 229.913 36.5659 228.473C36.4261 227.585 36.109 226.735 35.6333 225.972C34.6846 224.3 33.4544 222.756 32.7871 220.979C32.1198 219.203 32.168 216.919 33.5911 215.593C34.7248 214.507 36.4534 214.33 38.0212 214.403C39.4985 214.55 40.9256 215.019 42.202 215.778C46.3586 217.989 48.8028 222.813 53.2007 224.493C54.8971 225.136 56.7463 225.249 58.5071 225.683C60.2678 226.117 62.0849 226.977 62.9291 228.577C64.5934 231.753 61.6909 235.757 62.8808 239.126C63.9421 242.117 66.9008 243.21 68.5732 245.887C69.2519 247.076 69.5336 248.451 69.3772 249.811C69.2828 252.107 68.7678 254.366 67.8576 256.476C66.8108 258.664 65.6293 260.786 64.32 262.828C64.32 262.828 45.6913 275.418 45.5225 275.523Z" fill="#19D773"/>
<path d="M56.3926 268.858C56.325 268.857 56.2583 268.842 56.1963 268.815C56.1342 268.789 56.0781 268.75 56.0311 268.701C55.984 268.653 55.947 268.595 55.9221 268.533C55.8972 268.47 55.885 268.403 55.8861 268.335C56.3363 247.978 46.3185 225.723 39.2272 219.291C39.1264 219.2 39.0656 219.073 39.0581 218.937C39.0505 218.802 39.0969 218.669 39.187 218.567C39.2341 218.519 39.2904 218.481 39.3525 218.455C39.4147 218.429 39.4814 218.415 39.5488 218.415C39.6162 218.415 39.6829 218.429 39.745 218.455C39.8071 218.481 39.8634 218.519 39.9106 218.567C47.1466 225.08 57.3654 247.72 56.9071 268.359C56.9061 268.426 56.8919 268.491 56.8655 268.552C56.8391 268.613 56.8009 268.669 56.7531 268.715C56.7053 268.761 56.6489 268.798 56.587 268.822C56.5252 268.847 56.4591 268.859 56.3926 268.858Z" fill="white"/>
<path d="M52.6379 244.054C52.5904 244.066 52.5407 244.066 52.4932 244.054C45.9165 242.157 37.7639 241.964 37.6835 241.956C37.6163 241.955 37.5499 241.94 37.4884 241.913C37.4268 241.886 37.3711 241.848 37.3248 241.799C37.2784 241.75 37.2421 241.693 37.2181 241.63C37.1941 241.567 37.1829 241.5 37.185 241.433C37.1838 241.365 37.1966 241.298 37.2227 241.235C37.2489 241.173 37.2877 241.116 37.3369 241.069C37.386 241.022 37.4443 240.986 37.5081 240.963C37.5719 240.94 37.6399 240.93 37.7076 240.935C37.788 240.935 46.0692 241.136 52.7746 243.065C52.9042 243.104 53.0131 243.193 53.0778 243.312C53.1425 243.431 53.1578 243.57 53.1203 243.7C53.089 243.804 53.025 243.894 52.9381 243.958C52.8511 244.022 52.7458 244.055 52.6379 244.054Z" fill="white"/>
<path d="M242.133 249.031L239.085 247.27C238.578 246.941 238.155 246.496 237.852 245.972C237.549 245.448 237.374 244.86 237.341 244.255V117.609C237.374 117.006 237.548 116.418 237.85 115.895C238.152 115.371 238.572 114.926 239.077 114.594L323.779 65.6948C324.318 65.4215 324.915 65.279 325.52 65.279C326.124 65.279 326.721 65.4215 327.26 65.6948L330.307 67.4556C330.815 67.7852 331.238 68.2301 331.541 68.7541C331.844 69.278 332.019 69.8662 332.052 70.4706V197.117C332.019 197.72 331.844 198.307 331.543 198.831C331.241 199.355 330.821 199.8 330.315 200.132L245.614 249.039C245.074 249.313 244.478 249.455 243.872 249.454C243.267 249.452 242.671 249.307 242.133 249.031Z" fill="#455A64"/>
<path d="M332.052 70.1892C331.931 69.2887 331.2 68.9591 330.323 69.4656L245.614 118.373C245.102 118.694 244.679 119.139 244.384 119.667L237.847 115.897C238.14 115.365 238.563 114.916 239.077 114.594L323.779 65.6948C324.318 65.4215 324.915 65.279 325.52 65.279C326.124 65.279 326.721 65.4215 327.26 65.6948L330.307 67.4556C330.778 67.7586 331.178 68.1597 331.479 68.6316C331.78 69.1034 331.975 69.6347 332.052 70.1892Z" fill="#455A64"/>
<path d="M245.316 249.176C244.802 249.384 244.248 249.48 243.694 249.456C243.139 249.433 242.596 249.29 242.1 249.039L239.045 247.27C238.54 246.939 238.12 246.493 237.818 245.97C237.516 245.446 237.342 244.859 237.309 244.255V117.609C237.329 117.005 237.504 116.415 237.815 115.897L244.352 119.667C244.034 120.187 243.857 120.78 243.837 121.388V248.034C243.869 249.031 244.496 249.489 245.316 249.176Z" fill="#263238"/>
<path d="M243.869 121.404V248.034C243.869 249.144 244.673 249.594 245.614 249.039L330.315 200.132C330.821 199.8 331.241 199.355 331.543 198.831C331.844 198.307 332.019 197.72 332.052 197.117V70.4706C332.052 69.3611 331.248 68.9108 330.315 69.4656L245.614 118.373C245.104 118.704 244.68 119.152 244.377 119.678C244.074 120.205 243.9 120.797 243.869 121.404Z" fill="#37474F"/>
<path d="M224.091 169.644C222.997 168.993 217.924 166.106 217.659 165.954C217.452 165.83 217.276 165.662 217.143 165.461C217.01 165.261 216.923 165.033 216.89 164.794C216.857 164.556 216.878 164.313 216.951 164.084C217.024 163.854 217.148 163.644 217.313 163.469L237.341 141.986L243.869 145.733L223.85 167.232C223.692 167.399 223.573 167.599 223.499 167.816C223.425 168.034 223.399 168.264 223.422 168.493C223.445 168.721 223.516 168.942 223.632 169.141C223.747 169.339 223.904 169.511 224.091 169.644Z" fill="#455A64"/>
<path d="M243.869 145.757L223.85 167.232C223.627 167.469 223.482 167.769 223.433 168.09C223.385 168.412 223.434 168.74 223.576 169.033C223.718 169.326 223.946 169.568 224.229 169.729C224.511 169.89 224.836 169.961 225.16 169.933L243.869 168.39V145.757Z" fill="#37474F"/>
<path d="M287.961 107.093C297.834 101.392 305.834 106.015 305.834 117.416C305.834 128.817 297.834 142.67 287.961 148.37C278.087 154.071 270.088 149.448 270.088 138.055C270.088 126.662 278.087 112.793 287.961 107.093Z" fill="#19D773"/>
<path d="M287.832 116.065C291.048 114.216 293.629 115.712 293.629 119.41C293.519 121.421 292.937 123.377 291.93 125.12C290.923 126.864 289.519 128.345 287.832 129.444C284.616 131.293 282.027 129.798 282.027 126.099C282.138 124.088 282.721 122.132 283.729 120.388C284.738 118.645 286.144 117.164 287.832 116.065Z" fill="white"/>
<path d="M299.265 135.78C299.265 129.709 294.996 127.241 289.738 130.28L286.449 132.178C281.191 135.217 276.922 142.63 276.922 148.684V150.348C277.914 150.665 278.951 150.825 279.993 150.822C282.814 150.726 285.56 149.895 287.961 148.41C292.531 145.595 296.398 141.773 299.265 137.235V135.78Z" fill="white"/>
<path d="M276.64 204.803L299.281 191.73C300.246 191.175 301.026 191.625 301.026 192.735V200.027C300.993 200.632 300.818 201.22 300.514 201.744C300.211 202.268 299.789 202.713 299.281 203.042L276.64 216.115C275.675 216.67 274.896 216.22 274.896 215.11V207.818C274.928 207.213 275.104 206.625 275.407 206.101C275.71 205.577 276.133 205.133 276.64 204.803Z" fill="#19D773"/>
<path d="M265.553 188.514L310.344 162.641C311.494 161.974 312.434 162.513 312.434 163.847V166.557C312.395 167.282 312.185 167.987 311.822 168.616C311.459 169.244 310.952 169.779 310.344 170.175L265.529 196.047C264.379 196.715 263.447 196.176 263.447 194.841V192.156C263.483 191.425 263.694 190.714 264.06 190.08C264.426 189.447 264.938 188.91 265.553 188.514Z" fill="#FAFAFA"/>
<path d="M270.795 169.789C271.406 169.435 271.881 169.379 272.218 169.628C272.556 169.877 272.725 170.432 272.725 171.284C272.742 172.062 272.568 172.832 272.218 173.527C271.902 174.156 271.407 174.676 270.795 175.023L269.589 175.722V178.319C269.587 178.409 269.565 178.496 269.525 178.576C269.497 178.649 269.446 178.711 269.38 178.753L268.769 179.107C268.748 179.123 268.723 179.131 268.697 179.131C268.671 179.131 268.645 179.123 268.624 179.107C268.581 179.053 268.561 178.983 268.568 178.914V171.397C268.567 171.308 268.587 171.22 268.624 171.139C268.655 171.068 268.705 171.007 268.769 170.963L270.795 169.789ZM269.589 174.267L270.755 173.592C271.037 173.433 271.274 173.206 271.446 172.932C271.629 172.609 271.718 172.242 271.704 171.871C271.704 171.437 271.615 171.188 271.446 171.115C271.327 171.086 271.203 171.085 271.083 171.111C270.963 171.138 270.851 171.192 270.755 171.268L269.589 171.943V174.267Z" fill="#FAFAFA"/>
<path d="M276.094 166.725C276.174 166.677 276.238 166.677 276.279 166.725C276.33 166.798 276.366 166.88 276.383 166.967L278.24 173.254C278.24 173.254 278.24 173.302 278.24 173.326C278.239 173.416 278.217 173.504 278.176 173.584C278.148 173.656 278.097 173.718 278.031 173.76L277.485 174.074C277.388 174.13 277.316 174.138 277.275 174.074C277.237 174.034 277.209 173.984 277.195 173.929L276.865 172.828L274.453 174.211L274.132 175.69C274.109 175.77 274.079 175.848 274.043 175.923C274.003 176.021 273.929 176.101 273.834 176.148L273.288 176.462C273.267 176.479 273.242 176.488 273.215 176.488C273.189 176.488 273.163 176.479 273.143 176.462C273.101 176.41 273.081 176.344 273.087 176.277C273.082 176.248 273.082 176.218 273.087 176.189L274.936 167.763C274.958 167.639 274.993 167.518 275.04 167.401C275.08 167.316 275.144 167.246 275.225 167.2L276.094 166.725ZM276.512 171.598L275.708 168.76L274.904 172.554L276.512 171.598Z" fill="#FAFAFA"/>
<path d="M281.054 163.743C281.323 163.573 281.63 163.471 281.947 163.445C282.171 163.425 282.396 163.476 282.59 163.59C282.766 163.704 282.904 163.87 282.984 164.064C283.072 164.262 283.121 164.475 283.129 164.691C283.134 164.781 283.115 164.87 283.072 164.949C283.044 165.021 282.993 165.083 282.928 165.126L282.397 165.431C282.309 165.479 282.244 165.487 282.204 165.431C282.154 165.398 282.113 165.354 282.083 165.302C282.051 165.23 282.005 165.165 281.947 165.111C281.889 165.057 281.82 165.016 281.746 164.989C281.501 164.954 281.252 165.017 281.054 165.166C280.924 165.25 280.8 165.344 280.684 165.447C280.565 165.557 280.46 165.681 280.371 165.817C280.285 165.948 280.215 166.088 280.162 166.235C280.114 166.375 280.09 166.522 280.089 166.669C280.08 166.805 280.105 166.94 280.162 167.063C280.187 167.106 280.221 167.143 280.264 167.169C280.306 167.196 280.353 167.212 280.403 167.216C280.552 167.242 280.704 167.242 280.853 167.216L281.553 167.063C281.813 166.986 282.085 166.953 282.357 166.967C282.551 166.966 282.74 167.028 282.895 167.144C283.043 167.267 283.149 167.433 283.201 167.618C283.28 167.878 283.315 168.15 283.305 168.422C283.305 168.781 283.253 169.138 283.153 169.483C283.055 169.838 282.911 170.178 282.727 170.496C282.532 170.822 282.3 171.124 282.035 171.397C281.765 171.677 281.456 171.918 281.119 172.112C280.871 172.263 280.599 172.369 280.315 172.426C280.083 172.47 279.844 172.451 279.623 172.37C279.422 172.276 279.256 172.121 279.149 171.927C279.017 171.679 278.946 171.404 278.94 171.123C278.939 171.032 278.958 170.941 278.996 170.858C279.032 170.79 279.084 170.731 279.149 170.689L279.679 170.384C279.76 170.335 279.824 170.319 279.872 170.343C279.921 170.368 279.953 170.408 279.985 170.48C280.018 170.563 280.061 170.641 280.114 170.713C280.164 170.783 280.234 170.837 280.315 170.866C280.42 170.891 280.53 170.891 280.636 170.866C280.807 170.826 280.97 170.758 281.119 170.665C281.275 170.576 281.423 170.474 281.561 170.36C281.831 170.146 282.046 169.87 282.188 169.556C282.252 169.394 282.285 169.223 282.284 169.049C282.292 168.986 282.287 168.922 282.269 168.861C282.251 168.801 282.22 168.744 282.18 168.695C282.136 168.657 282.085 168.629 282.03 168.612C281.974 168.595 281.916 168.591 281.858 168.599C281.676 168.606 281.495 168.636 281.32 168.687C281.111 168.735 280.869 168.792 280.588 168.84C280.373 168.894 280.15 168.91 279.929 168.888C279.755 168.877 279.59 168.806 279.462 168.687C279.323 168.551 279.226 168.378 279.181 168.189C279.116 167.909 279.087 167.623 279.093 167.337C279.092 166.983 279.144 166.63 279.245 166.291C279.341 165.942 279.482 165.607 279.663 165.294C279.837 164.984 280.048 164.695 280.29 164.434C280.511 164.169 280.768 163.936 281.054 163.743Z" fill="#FAFAFA"/>
<path d="M286.337 160.704C286.604 160.529 286.911 160.423 287.229 160.398C287.453 160.379 287.678 160.429 287.872 160.543C288.044 160.66 288.178 160.825 288.258 161.017C288.346 161.215 288.395 161.428 288.403 161.644C288.412 161.734 288.393 161.824 288.347 161.901C288.318 161.974 288.268 162.036 288.202 162.078L287.671 162.384C287.591 162.432 287.526 162.448 287.478 162.384C287.427 162.352 287.388 162.304 287.366 162.247C287.292 162.106 287.169 161.997 287.02 161.942C286.9 161.924 286.778 161.931 286.66 161.961C286.543 161.991 286.433 162.045 286.337 162.119C286.202 162.201 286.076 162.295 285.959 162.4C285.842 162.51 285.739 162.634 285.653 162.77C285.565 162.899 285.494 163.04 285.444 163.188C285.394 163.327 285.367 163.474 285.364 163.622C285.354 163.757 285.379 163.893 285.436 164.016C285.461 164.059 285.496 164.096 285.538 164.122C285.58 164.149 285.628 164.165 285.677 164.169C285.826 164.195 285.979 164.195 286.128 164.169L286.827 164.016C287.089 163.943 287.36 163.911 287.631 163.92C287.825 163.918 288.014 163.98 288.17 164.096C288.317 164.222 288.425 164.386 288.483 164.571C288.554 164.833 288.587 165.104 288.58 165.375C288.579 165.734 288.528 166.091 288.427 166.436C288.329 166.791 288.186 167.131 288.001 167.449C287.807 167.778 287.575 168.083 287.309 168.358C287.038 168.631 286.733 168.869 286.401 169.065C286.153 169.215 285.881 169.321 285.597 169.379C285.368 169.422 285.132 169.403 284.913 169.322C284.709 169.232 284.539 169.077 284.431 168.88C284.299 168.633 284.23 168.357 284.23 168.076C284.221 167.987 284.24 167.896 284.286 167.819C284.315 167.746 284.365 167.684 284.431 167.642L284.962 167.337C285.042 167.288 285.115 167.272 285.155 167.296C285.183 167.309 285.207 167.328 285.227 167.352C285.246 167.375 285.26 167.403 285.267 167.433C285.304 167.514 285.347 167.592 285.396 167.666C285.449 167.737 285.522 167.79 285.605 167.819C285.711 167.843 285.821 167.843 285.927 167.819C286.097 167.779 286.26 167.711 286.409 167.618C286.561 167.527 286.706 167.425 286.843 167.312C286.984 167.202 287.109 167.072 287.213 166.926C287.317 166.788 287.403 166.636 287.47 166.476C287.535 166.315 287.567 166.143 287.567 165.97C287.574 165.907 287.569 165.843 287.551 165.782C287.533 165.721 287.503 165.665 287.462 165.616C287.419 165.578 287.367 165.549 287.312 165.533C287.256 165.516 287.198 165.511 287.141 165.519C286.961 165.53 286.783 165.56 286.61 165.608C286.401 165.656 286.152 165.712 285.878 165.761C285.66 165.815 285.435 165.831 285.211 165.809C285.037 165.8 284.871 165.728 284.745 165.608C284.608 165.471 284.513 165.298 284.471 165.109C284.4 164.834 284.367 164.55 284.375 164.265C284.378 163.909 284.429 163.555 284.528 163.212C284.627 162.864 284.767 162.53 284.946 162.215C285.12 161.902 285.333 161.613 285.581 161.355C285.797 161.1 286.052 160.88 286.337 160.704Z" fill="#FAFAFA"/>
<path d="M292.198 161.709L291.546 165.56C291.527 165.676 291.495 165.789 291.45 165.897C291.419 165.984 291.359 166.058 291.281 166.106L290.67 166.46C290.59 166.508 290.533 166.508 290.493 166.46C290.439 166.394 290.408 166.312 290.405 166.227L289.44 159.433C289.44 159.433 289.44 159.369 289.44 159.345C289.442 159.255 289.464 159.168 289.504 159.087C289.535 159.016 289.585 158.955 289.649 158.911L290.204 158.589C290.25 158.57 290.302 158.57 290.349 158.589C290.397 158.589 290.429 158.653 290.445 158.782L291.08 163.357L291.635 159.924C291.649 159.838 291.674 159.754 291.707 159.674C291.739 159.573 291.808 159.487 291.9 159.433L292.519 159.071C292.608 159.023 292.672 159.031 292.712 159.071C292.747 159.123 292.772 159.18 292.785 159.24L293.347 162.03L293.983 156.724C293.99 156.619 294.02 156.518 294.071 156.426C294.109 156.366 294.158 156.314 294.216 156.273L294.771 155.952C294.791 155.936 294.817 155.928 294.843 155.928C294.869 155.928 294.894 155.936 294.915 155.952C294.938 155.978 294.956 156.009 294.967 156.042C294.978 156.075 294.982 156.11 294.98 156.145C294.983 156.177 294.983 156.209 294.98 156.241L294.015 164.145C293.999 164.26 293.969 164.374 293.926 164.482C293.89 164.568 293.828 164.641 293.749 164.691L293.13 165.045C293.058 165.085 293.002 165.085 292.962 165.045C292.921 164.971 292.888 164.893 292.865 164.812L292.198 161.709Z" fill="#FAFAFA"/>
<path d="M295.96 158.3C295.978 157.854 296.032 157.41 296.121 156.973C296.213 156.546 296.353 156.13 296.539 155.735C296.717 155.35 296.944 154.991 297.215 154.665C297.49 154.343 297.819 154.071 298.188 153.861C298.471 153.669 298.802 153.561 299.144 153.548C299.4 153.551 299.644 153.651 299.828 153.829C300.022 154.048 300.163 154.31 300.238 154.593C300.341 154.962 300.398 155.343 300.407 155.727C300.407 155.871 300.407 156.032 300.407 156.209C300.407 156.386 300.407 156.571 300.407 156.764C300.407 156.957 300.407 157.142 300.407 157.319C300.407 157.496 300.407 157.664 300.407 157.817C300.389 158.26 300.335 158.701 300.246 159.136C300.153 159.562 300.015 159.977 299.836 160.374C299.653 160.757 299.423 161.116 299.152 161.443C298.877 161.763 298.551 162.035 298.188 162.247C297.898 162.438 297.561 162.546 297.215 162.561C297.089 162.563 296.965 162.54 296.849 162.493C296.733 162.446 296.627 162.376 296.539 162.287C296.33 162.062 296.185 161.784 296.121 161.483C296.025 161.113 295.972 160.732 295.96 160.35C295.96 160.205 295.96 160.044 295.96 159.867C295.96 159.69 295.96 159.506 295.96 159.313C295.96 159.12 295.96 158.943 295.96 158.758C295.96 158.573 295.952 158.444 295.96 158.3ZM299.385 156.378C299.403 156.181 299.381 155.983 299.32 155.795C299.26 155.607 299.161 155.433 299.032 155.285C298.823 155.1 298.533 155.108 298.188 155.285C297.812 155.505 297.515 155.837 297.335 156.233C297.107 156.702 296.986 157.216 296.982 157.737C296.982 158.034 296.982 158.364 296.982 158.726C296.982 159.087 296.982 159.409 296.982 159.699C296.964 159.895 296.986 160.093 297.047 160.281C297.107 160.469 297.206 160.643 297.335 160.792C297.544 160.969 297.834 160.953 298.188 160.752C298.557 160.53 298.851 160.202 299.032 159.811C299.26 159.345 299.381 158.834 299.385 158.316C299.385 158.01 299.385 157.68 299.385 157.319C299.385 156.957 299.394 156.667 299.385 156.378Z" fill="#FAFAFA"/>
<path d="M303.912 150.654C304.547 150.292 305.022 150.235 305.351 150.501C305.546 150.716 305.692 150.972 305.777 151.25C305.861 151.528 305.884 151.821 305.842 152.109C305.848 152.655 305.764 153.198 305.592 153.717C305.429 154.2 305.175 154.647 304.845 155.035L305.89 157.311C305.893 157.348 305.893 157.386 305.89 157.423C305.89 157.496 305.874 157.567 305.842 157.632C305.819 157.691 305.78 157.741 305.729 157.777L305.086 158.147C304.981 158.203 304.909 158.211 304.861 158.147C304.818 158.105 304.783 158.056 304.756 158.002L303.767 155.855L302.762 156.434V159.152C302.763 159.241 302.744 159.329 302.706 159.409C302.673 159.479 302.623 159.54 302.561 159.586L301.95 159.94C301.93 159.957 301.904 159.966 301.878 159.966C301.851 159.966 301.826 159.957 301.806 159.94C301.783 159.915 301.765 159.886 301.754 159.854C301.743 159.822 301.738 159.788 301.741 159.755V152.237C301.744 152.148 301.766 152.06 301.806 151.98C301.834 151.907 301.885 151.845 301.95 151.803L303.912 150.654ZM302.778 154.979L303.912 154.368C304.189 154.213 304.426 153.996 304.603 153.733C304.79 153.423 304.879 153.065 304.861 152.704C304.861 152.27 304.772 152.028 304.603 151.98C304.359 151.947 304.111 152.01 303.912 152.157L302.819 152.784L302.778 154.979Z" fill="#FAFAFA"/>
<path d="M309.299 147.558C309.591 147.368 309.925 147.252 310.272 147.22C310.523 147.211 310.768 147.301 310.955 147.47C311.168 147.694 311.315 147.972 311.381 148.274C311.489 148.672 311.549 149.083 311.558 149.496C311.558 150.059 311.558 150.637 311.558 151.224C311.542 151.703 311.482 152.179 311.381 152.647C311.289 153.082 311.149 153.506 310.963 153.91C310.784 154.281 310.557 154.627 310.288 154.939C310.019 155.258 309.698 155.53 309.339 155.743L307.434 156.78C307.413 156.797 307.388 156.806 307.361 156.806C307.335 156.806 307.309 156.797 307.289 156.78C307.265 156.756 307.247 156.727 307.236 156.695C307.225 156.663 307.221 156.629 307.224 156.595V149.078C307.227 148.988 307.249 148.9 307.289 148.82C307.317 148.748 307.368 148.686 307.434 148.644L309.299 147.558ZM310.537 150.059C310.533 149.841 310.501 149.625 310.44 149.415C310.403 149.257 310.322 149.112 310.207 148.997C310.157 148.947 310.097 148.907 310.03 148.881C309.964 148.855 309.893 148.842 309.821 148.845C309.62 148.858 309.426 148.925 309.259 149.037L308.246 149.616V154.858L309.299 154.255C309.502 154.137 309.685 153.985 309.837 153.805C309.987 153.629 310.114 153.434 310.215 153.226C310.316 153.005 310.391 152.773 310.44 152.535C310.496 152.287 310.529 152.034 310.537 151.779C310.561 151.192 310.561 150.621 310.537 150.059Z" fill="#FAFAFA"/>
<path d="M198.894 30.8656C200.281 31.1744 201.618 31.6778 202.865 32.361C204.059 33.0028 205.129 33.8523 206.025 34.8695C206.882 35.848 207.518 36.9997 207.89 38.2463C208.27 39.5806 208.297 40.9904 207.971 42.3386C207.755 43.4076 207.332 44.4238 206.724 45.3295C206.17 46.1041 205.51 46.7969 204.763 47.3878C204.029 47.9574 203.246 48.4606 202.423 48.8912L200.108 50.1214C199.41 50.4852 198.748 50.9131 198.13 51.3997C197.57 51.8287 197.142 52.405 196.892 53.064C196.769 53.3651 196.566 53.6266 196.305 53.8198C196.181 53.9158 196.037 53.9824 195.884 54.0145C195.731 54.0465 195.572 54.0432 195.42 54.0047L192.011 53.2489C191.847 53.2145 191.691 53.1477 191.553 53.0525C191.415 52.9572 191.298 52.8354 191.207 52.6942C191.111 52.5629 191.047 52.4107 191.021 52.2501C190.994 52.0895 191.006 51.9249 191.055 51.7696C191.329 50.7138 191.813 49.724 192.478 48.8591C193.084 48.094 193.787 47.4103 194.568 46.825C195.329 46.2677 196.136 45.7755 196.98 45.3536C197.784 44.9436 198.588 44.5496 199.287 44.1557C199.938 43.8059 200.55 43.3882 201.113 42.9095C201.606 42.4962 201.948 41.9305 202.085 41.3015C202.213 40.7552 202.207 40.1861 202.067 39.6429C201.927 39.0996 201.657 38.5983 201.281 38.182C200.341 37.1555 199.085 36.4734 197.712 36.2443C195.171 35.6815 193.027 36.5364 191.28 38.8091C191.111 39.0572 190.898 39.2724 190.653 39.4442C190.375 39.5818 190.054 39.6049 189.76 39.5086L186.134 38.7046C185.875 38.6546 185.647 38.5043 185.499 38.2865C185.42 38.1701 185.367 38.0381 185.343 37.8994C185.319 37.7606 185.326 37.6185 185.362 37.4825C185.67 36.3653 186.244 35.3392 187.035 34.4916C187.926 33.5087 188.985 32.692 190.162 32.0796C191.449 31.4062 192.836 30.9447 194.271 30.7128C195.807 30.4629 197.377 30.5148 198.894 30.8656ZM195.042 56.7383C195.361 56.8132 195.638 57.0099 195.814 57.2863C195.99 57.5628 196.051 57.8971 195.983 58.2177L195.115 62.1572C195.085 62.3222 195.021 62.4791 194.927 62.6176C194.833 62.7562 194.711 62.8733 194.568 62.9613C194.433 63.054 194.281 63.1177 194.12 63.1482C193.96 63.1786 193.795 63.1752 193.635 63.1381L189.744 62.2457C189.579 62.2178 189.421 62.1545 189.282 62.0601C189.144 61.9658 189.027 61.8426 188.94 61.699C188.85 61.5632 188.788 61.4104 188.759 61.2501C188.73 61.0897 188.734 60.9251 188.771 60.7663L189.648 56.8267C189.722 56.5074 189.919 56.2297 190.195 56.0526C190.471 55.8755 190.805 55.8129 191.127 55.878L195.042 56.7383Z" fill="#19D773"/>
<path d="M203.187 68.5812C204.155 68.4259 205.14 68.407 206.113 68.5249C207.043 68.6355 207.947 68.9075 208.783 69.3289C209.579 69.742 210.28 70.3172 210.841 71.0173C211.345 71.7026 211.7 72.4859 211.883 73.3168C212.066 74.1477 212.072 75.0077 211.902 75.8413C211.749 76.4822 211.503 77.0972 211.171 77.6664C210.851 78.2201 210.479 78.7423 210.061 79.2262C209.651 79.7086 209.257 80.1669 208.895 80.6091C208.541 81.021 208.226 81.4652 207.955 81.9357C207.7 82.348 207.571 82.826 207.585 83.3105C207.578 83.537 207.514 83.7581 207.4 83.9537C207.342 84.0438 207.265 84.1206 207.175 84.1788C207.085 84.237 206.983 84.2754 206.877 84.2914L204.465 84.6773C204.353 84.6978 204.237 84.6955 204.125 84.6706C204.013 84.6458 203.907 84.5988 203.814 84.5326C203.719 84.4729 203.64 84.3914 203.582 84.295C203.525 84.1985 203.491 84.0898 203.484 83.9778C203.383 83.2297 203.438 82.4687 203.645 81.7427C203.834 81.1 204.104 80.484 204.449 79.9096C204.787 79.3583 205.175 78.8389 205.607 78.3579C206.033 77.8755 206.411 77.4252 206.781 76.9911C207.111 76.6033 207.397 76.1799 207.633 75.7288C207.842 75.3404 207.919 74.8942 207.85 74.4585C207.79 74.0749 207.637 73.7116 207.406 73.3994C207.176 73.0873 206.873 72.8355 206.523 72.6655C205.659 72.248 204.681 72.1292 203.742 72.3279C202.891 72.4522 202.1 72.8365 201.477 73.4281C200.854 74.0197 200.429 74.7896 200.26 75.6323C200.213 75.835 200.132 76.0281 200.019 76.2031C199.876 76.3557 199.681 76.4502 199.472 76.4685L196.932 76.8785C196.753 76.9127 196.568 76.8751 196.417 76.774C196.34 76.7208 196.275 76.6517 196.226 76.5712C196.178 76.4908 196.147 76.4009 196.136 76.3077C196.06 75.5098 196.185 74.7057 196.498 73.968C196.816 73.1096 197.284 72.3146 197.88 71.6203C198.534 70.8601 199.305 70.2088 200.164 69.6907C201.09 69.1289 202.117 68.7521 203.187 68.5812ZM207.336 86.1486C207.446 86.1311 207.559 86.1355 207.668 86.1617C207.777 86.1879 207.88 86.2354 207.971 86.3014C208.065 86.3637 208.146 86.4453 208.207 86.5409C208.268 86.6365 208.308 86.7439 208.324 86.8561L208.775 89.6139C208.81 89.8376 208.755 90.066 208.622 90.2496C208.49 90.4332 208.29 90.5572 208.067 90.5947L205.374 91.0369C205.15 91.0715 204.922 91.0166 204.739 90.8842C204.645 90.8211 204.566 90.7391 204.507 90.6435C204.447 90.548 204.408 90.4409 204.393 90.3294L203.943 87.5717C203.922 87.461 203.925 87.3473 203.952 87.2379C203.978 87.1285 204.027 87.0258 204.095 86.9365C204.159 86.8433 204.24 86.7643 204.336 86.7048C204.432 86.6452 204.539 86.6064 204.65 86.5908L207.336 86.1486Z" fill="#19D773"/>
<g opacity="0.2">
<path opacity="0.2" d="M203.187 68.5812C204.155 68.4259 205.14 68.407 206.113 68.5249C207.043 68.6355 207.947 68.9075 208.783 69.3289C209.579 69.742 210.28 70.3172 210.841 71.0173C211.345 71.7026 211.7 72.4859 211.883 73.3168C212.066 74.1477 212.072 75.0077 211.902 75.8413C211.749 76.4822 211.503 77.0972 211.171 77.6664C210.851 78.2201 210.479 78.7423 210.061 79.2262C209.651 79.7086 209.257 80.1669 208.895 80.6091C208.541 81.021 208.226 81.4652 207.955 81.9357C207.7 82.348 207.571 82.826 207.585 83.3105C207.578 83.537 207.514 83.7581 207.4 83.9537C207.342 84.0438 207.265 84.1206 207.175 84.1788C207.085 84.237 206.983 84.2754 206.877 84.2914L204.465 84.6773C204.353 84.6978 204.237 84.6955 204.125 84.6706C204.013 84.6458 203.907 84.5988 203.814 84.5326C203.719 84.4729 203.64 84.3914 203.582 84.295C203.525 84.1985 203.491 84.0898 203.484 83.9778C203.383 83.2297 203.438 82.4687 203.645 81.7427C203.834 81.1 204.104 80.484 204.449 79.9096C204.787 79.3583 205.175 78.8389 205.607 78.3579C206.033 77.8755 206.411 77.4252 206.781 76.9911C207.111 76.6033 207.397 76.1799 207.633 75.7288C207.842 75.3404 207.919 74.8942 207.85 74.4585C207.79 74.0749 207.637 73.7116 207.406 73.3994C207.176 73.0873 206.873 72.8355 206.523 72.6655C205.659 72.248 204.681 72.1292 203.742 72.3279C202.891 72.4522 202.1 72.8365 201.477 73.4281C200.854 74.0197 200.429 74.7896 200.26 75.6323C200.213 75.835 200.132 76.0281 200.019 76.2031C199.876 76.3557 199.681 76.4502 199.472 76.4685L196.932 76.8785C196.753 76.9127 196.568 76.8751 196.417 76.774C196.34 76.7208 196.275 76.6517 196.226 76.5712C196.178 76.4908 196.147 76.4009 196.136 76.3077C196.06 75.5098 196.185 74.7057 196.498 73.968C196.816 73.1096 197.284 72.3146 197.88 71.6203C198.534 70.8601 199.305 70.2088 200.164 69.6907C201.09 69.1289 202.117 68.7521 203.187 68.5812ZM207.336 86.1486C207.446 86.1311 207.559 86.1355 207.668 86.1617C207.777 86.1879 207.88 86.2354 207.971 86.3014C208.065 86.3637 208.146 86.4453 208.207 86.5409C208.268 86.6365 208.308 86.7439 208.324 86.8561L208.775 89.6139C208.81 89.8376 208.755 90.066 208.622 90.2496C208.49 90.4332 208.29 90.5572 208.067 90.5947L205.374 91.0369C205.15 91.0715 204.922 91.0166 204.739 90.8842C204.645 90.8211 204.566 90.7391 204.507 90.6435C204.447 90.548 204.408 90.4409 204.393 90.3294L203.943 87.5717C203.922 87.461 203.925 87.3473 203.952 87.2379C203.978 87.1285 204.027 87.0258 204.095 86.9365C204.159 86.8433 204.24 86.7643 204.336 86.7048C204.432 86.6452 204.539 86.6064 204.65 86.5908L207.336 86.1486Z" fill="black"/>
</g>
<path d="M225.924 72.9148C226.034 72.991 226.127 73.0887 226.197 73.2021C226.268 73.3155 226.314 73.442 226.334 73.574C226.36 73.7048 226.358 73.8395 226.329 73.9696C226.3 74.0997 226.244 74.2223 226.165 74.3298L224.252 77.0232C224.175 77.1328 224.078 77.2257 223.964 77.2962C223.851 77.3667 223.724 77.4134 223.592 77.4332C223.462 77.4588 223.327 77.457 223.197 77.428C223.067 77.3989 222.944 77.3432 222.837 77.2644L220.2 75.3911C220.09 75.3159 219.997 75.2182 219.928 75.1046C219.858 74.9909 219.814 74.8639 219.798 74.7318C219.772 74.601 219.774 74.4663 219.803 74.3362C219.832 74.2062 219.888 74.0835 219.966 73.976L221.904 71.2826C222.061 71.0643 222.297 70.9166 222.562 70.8714C222.827 70.8263 223.099 70.8874 223.319 71.0414L225.924 72.9148ZM237.051 54.672C238.013 55.3459 238.869 56.1587 239.592 57.084C240.297 57.9447 240.842 58.9251 241.2 59.9784C241.534 60.9878 241.646 62.0573 241.53 63.114C241.393 64.2409 240.967 65.3131 240.291 66.2255C239.79 66.9632 239.144 67.5922 238.394 68.0747C237.734 68.4887 237.016 68.803 236.263 69.0073C235.531 69.1988 234.783 69.3279 234.028 69.3932L231.89 69.5862C231.248 69.6375 230.613 69.7478 229.992 69.9158C229.419 70.0459 228.895 70.3359 228.481 70.752C228.294 70.9422 228.057 71.0759 227.797 71.1379C227.674 71.1733 227.544 71.1787 227.418 71.1535C227.292 71.1283 227.174 71.0733 227.074 70.9932L224.742 69.337C224.519 69.1778 224.367 68.9387 224.316 68.6696C224.286 68.5392 224.287 68.4036 224.319 68.2737C224.351 68.1438 224.414 68.0233 224.501 67.9219C225.046 67.2152 225.726 66.6247 226.503 66.1853C227.202 65.8035 227.948 65.5143 228.722 65.325C229.469 65.1438 230.23 65.0281 230.997 64.9793C231.753 64.931 232.461 64.8748 233.12 64.8104C233.723 64.7572 234.319 64.6385 234.897 64.4567C235.402 64.2884 235.837 63.9576 236.135 63.516C236.404 63.1431 236.578 62.7108 236.644 62.2558C236.71 61.8009 236.665 61.3368 236.513 60.903C236.132 59.8314 235.405 58.9175 234.446 58.3061C232.71 57.0679 230.815 57.0277 228.762 58.1855C228.556 58.317 228.327 58.4096 228.087 58.4588C227.962 58.4675 227.836 58.4514 227.718 58.4114C227.599 58.3714 227.489 58.3083 227.395 58.2257L224.919 56.4649C224.829 56.4054 224.753 56.3285 224.693 56.2387C224.634 56.1489 224.593 56.0481 224.573 55.9423C224.554 55.8329 224.558 55.7207 224.584 55.6128C224.61 55.5048 224.659 55.4035 224.726 55.3152C225.31 54.5666 226.07 53.973 226.937 53.5866C227.923 53.1401 228.978 52.8681 230.057 52.7826C231.243 52.6834 232.438 52.7785 233.594 53.064C234.842 53.3647 236.017 53.9114 237.051 54.672Z" fill="#19D773"/>
<g opacity="0.6">
<path opacity="0.6" d="M225.924 72.9148C226.034 72.991 226.127 73.0887 226.197 73.2021C226.268 73.3155 226.314 73.442 226.334 73.574C226.36 73.7048 226.358 73.8395 226.329 73.9696C226.3 74.0997 226.244 74.2223 226.165 74.3298L224.252 77.0232C224.175 77.1328 224.078 77.2257 223.964 77.2962C223.851 77.3667 223.724 77.4134 223.592 77.4332C223.462 77.4588 223.327 77.457 223.197 77.428C223.067 77.3989 222.944 77.3432 222.837 77.2644L220.2 75.3911C220.09 75.3159 219.997 75.2182 219.928 75.1046C219.858 74.9909 219.814 74.8639 219.798 74.7318C219.772 74.601 219.774 74.4663 219.803 74.3362C219.832 74.2062 219.888 74.0835 219.966 73.976L221.904 71.2826C222.061 71.0643 222.297 70.9166 222.562 70.8714C222.827 70.8263 223.099 70.8874 223.319 71.0414L225.924 72.9148ZM237.051 54.672C238.013 55.3459 238.869 56.1587 239.592 57.084C240.297 57.9447 240.842 58.9251 241.2 59.9784C241.534 60.9878 241.646 62.0573 241.53 63.114C241.393 64.2409 240.967 65.3131 240.291 66.2255C239.79 66.9632 239.144 67.5922 238.394 68.0747C237.734 68.4887 237.016 68.803 236.263 69.0073C235.531 69.1988 234.783 69.3279 234.028 69.3932L231.89 69.5862C231.248 69.6375 230.613 69.7478 229.992 69.9158C229.419 70.0459 228.895 70.3359 228.481 70.752C228.294 70.9422 228.057 71.0759 227.797 71.1379C227.674 71.1733 227.544 71.1787 227.418 71.1535C227.292 71.1283 227.174 71.0733 227.074 70.9932L224.742 69.337C224.519 69.1778 224.367 68.9387 224.316 68.6696C224.286 68.5392 224.287 68.4036 224.319 68.2737C224.351 68.1438 224.414 68.0233 224.501 67.9219C225.046 67.2152 225.726 66.6247 226.503 66.1853C227.202 65.8035 227.948 65.5143 228.722 65.325C229.469 65.1438 230.23 65.0281 230.997 64.9793C231.753 64.931 232.461 64.8748 233.12 64.8104C233.723 64.7572 234.319 64.6385 234.897 64.4567C235.402 64.2884 235.837 63.9576 236.135 63.516C236.404 63.1431 236.578 62.7108 236.644 62.2558C236.71 61.8009 236.665 61.3368 236.513 60.903C236.132 59.8314 235.405 58.9175 234.446 58.3061C232.71 57.0679 230.815 57.0277 228.762 58.1855C228.556 58.317 228.327 58.4096 228.087 58.4588C227.962 58.4675 227.836 58.4514 227.718 58.4114C227.599 58.3714 227.489 58.3083 227.395 58.2257L224.919 56.4649C224.829 56.4054 224.753 56.3285 224.693 56.2387C224.634 56.1489 224.593 56.0481 224.573 55.9423C224.554 55.8329 224.558 55.7207 224.584 55.6128C224.61 55.5048 224.659 55.4035 224.726 55.3152C225.31 54.5666 226.07 53.973 226.937 53.5866C227.923 53.1401 228.978 52.8681 230.057 52.7826C231.243 52.6834 232.438 52.7785 233.594 53.064C234.842 53.3647 236.017 53.9114 237.051 54.672Z" fill="white"/>
</g>
<path d="M166.05 144.085H137.484V74.8765C137.484 68.8654 139.872 63.1006 144.122 58.8501C148.373 54.5996 154.138 52.2118 160.149 52.2118H162.786C168.797 52.2118 174.562 54.5996 178.812 58.8501C183.063 63.1006 185.451 68.8654 185.451 74.8765V124.725C185.44 129.863 183.391 134.787 179.754 138.417C176.117 142.046 171.188 144.085 166.05 144.085Z" fill="#263238"/>
<path d="M134.702 310.698C134.197 313.565 133.928 316.469 133.898 319.381C133.794 324.655 132.829 326.528 132.7 330.854C132.547 335.799 133.408 337.648 135.41 340.43C137.412 343.211 142.646 345.728 144.913 341.033C147.18 336.337 146.851 333.258 146.135 328.41C145.403 323.393 145.331 320.619 144.881 316.8C144.511 313.431 144.077 310.867 144.077 310.867L134.702 310.698Z" fill="#263238"/>
<path d="M149.673 275.667L132.306 275.354C132.564 286.948 134.405 299.82 134.718 310.73C134.783 312.78 134.67 326.641 135.442 330.83C136.608 337.165 144.117 336.305 144.519 332.518C144.921 328.731 144.037 312.547 144.061 310.875C143.988 303.896 147.277 292.117 148.973 279.591C149.046 278.988 149.592 276.27 149.673 275.667Z" fill="#FFA8A7"/>
<path d="M171.984 301.677C171.984 301.677 171.3 301.307 171.18 302.039C171.011 302.907 170.754 304.7 170.376 306.131C169.877 308.117 169.459 311.389 169.757 313.013C170.054 314.637 173.833 316.712 176.285 317.467C179.307 318.4 182.063 320.04 184.325 322.251C186.737 324.535 191.987 326.689 195.581 326.665C199.802 326.665 202.745 325.258 204.136 322.999C205.527 320.74 202.865 320.466 198.041 317.371L194.303 314.959C186.657 309.966 183.851 307.297 181.704 302.304L171.984 301.677Z" fill="#263238"/>
<path d="M181.768 298.581C181.64 294.996 184.116 264.516 184.116 264.516L167.626 272.033C171.156 293.114 171.911 298.091 171.968 301.54C171.895 301.829 171.865 302.127 171.879 302.425C171.879 306.517 176.518 308.728 180.12 311.462C183.182 313.86 186.445 315.991 189.873 317.829C192.494 319.14 197.816 319.26 198.475 317.58C194.086 314.227 187.702 309.21 184.212 305.383C182.508 303.582 181.897 302.175 181.768 298.581Z" fill="#FFA8A7"/>
<path d="M139.422 162.537C133.086 176.438 133.086 187.195 134.139 204.94C135.072 221.221 136.624 235.572 136.624 235.572C136.383 238.458 132.371 244.094 131.848 256.862C131.366 268.793 132.652 283.965 132.652 283.965C132.652 283.965 141.665 288.958 148.33 283.917C148.33 283.917 154.762 253.212 156.643 238.273C158.251 225.241 161.146 208.59 161.146 208.59L167.232 238.185C165.918 242.384 164.966 246.688 164.386 251.049C163.534 259.837 168.454 277.091 168.454 277.091C168.454 277.091 177.764 279.864 183.449 274.823C183.449 274.823 185.571 246.772 186.367 236.191C187.428 222.017 185.193 183.65 183.449 163.333L139.422 162.537Z" fill="#455A64"/>
<path d="M161.162 208.566L163.662 186.263C163.662 186.263 174.87 184.767 179.951 179.991C178.497 182.267 176.56 184.194 174.277 185.636C171.994 187.079 169.421 188.001 166.742 188.337L163.124 209.088L167.232 238.185L161.162 208.566Z" fill="#263238"/>
<path d="M206.548 157.053C207.011 152.983 207.215 148.888 207.159 144.792C206.909 141.255 206.274 140.676 201.33 134.413C194.656 125.947 188.956 118.333 182.926 110.767C178.617 105.364 174.082 104.536 169.676 104.777C166.589 104.946 172.619 119.796 175.65 128.584L192.96 147.22C193.496 147.956 193.742 148.863 193.651 149.769L192.606 165.624L197.792 172.571C197.792 172.571 205.647 165.801 206.548 157.053Z" fill="#FFA8A7"/>
<path d="M152.985 105.26C149.632 105.493 143.538 106.064 143.538 106.064C140.025 108.025 139.132 109.641 138.481 114.305C138.2 116.299 139.824 121.597 141.215 129.13L143.852 143.096L143.562 150.026C142.195 154.255 139.1 159.506 136.366 167.248C149.793 174.741 161.049 175.023 171.26 173.68C179.043 172.675 183.167 170.794 184.542 168.928C184.253 161.282 183.738 156.555 183.577 148.563C183.521 145.21 183.722 141.818 183.859 137.958C189.077 133.665 189.141 126.525 186.271 121.878C179.654 111.161 173.214 104.415 168.953 104.761L152.985 105.26Z" fill="#19D773"/>
<path opacity="0.6" d="M152.985 105.26C149.632 105.493 143.538 106.064 143.538 106.064C140.025 108.025 139.132 109.641 138.481 114.305C138.2 116.299 139.824 121.597 141.215 129.13L143.852 143.096L143.562 150.026C142.195 154.255 139.1 159.506 136.366 167.248C149.793 174.741 161.049 175.023 171.26 173.68C179.043 172.675 183.167 170.794 184.542 168.928C184.253 161.282 183.738 156.555 183.577 148.563C183.521 145.21 183.722 141.818 183.859 137.958C189.077 133.665 189.141 126.525 186.271 121.878C179.654 111.161 173.214 104.415 168.953 104.761L152.985 105.26Z" fill="white"/>
<path opacity="0.1" d="M173.463 138.063C173.463 138.063 167.337 142.823 160.334 140.338C158.367 139.719 156.594 138.602 155.185 137.096C153.777 135.591 152.781 133.747 152.294 131.743C152.294 131.743 151.554 139.743 160.374 142.469C168.92 145.098 173.463 138.063 173.463 138.063Z" fill="black"/>
<path d="M181.776 83.3024C181.511 94.9122 177.756 97.7744 175.859 98.5784C173.961 99.3825 170.327 98.9 166.79 98.3131V105.324C166.79 105.324 170.874 109.601 170.569 112.793C170.263 115.985 164.137 116.347 159.57 113.219C157.05 111.488 154.771 109.431 152.792 107.101C152.412 106.651 152.204 106.081 152.205 105.493V89.0912C152.205 89.0912 150.268 91.1414 146.843 88.7938C146.104 88.3221 145.471 87.7019 144.984 86.9725C144.498 86.243 144.169 85.4204 144.018 84.5569C143.866 83.6933 143.896 82.8078 144.106 81.9565C144.315 81.1052 144.7 80.3068 145.235 79.6121C146.73 77.8513 150.525 77.7307 152.342 80.4161C153.371 82.418 153.508 84.4361 154.657 83.6321C157.713 81.4291 156.072 76.3961 159.763 73.9841C160.974 73.352 162.232 72.8144 163.526 72.3761C170.11 70.1008 175.819 68.1872 177.194 63.6848C179.782 65.1642 182.098 69.6103 181.776 83.3024Z" fill="#FFA8A7"/>
<path d="M168.792 93.674C169.635 93.674 170.319 92.9901 170.319 92.1465C170.319 91.3028 169.635 90.6189 168.792 90.6189C167.948 90.6189 167.264 91.3028 167.264 92.1465C167.264 92.9901 167.948 93.674 168.792 93.674Z" fill="#B16668"/>
<path d="M167.779 81.5417C167.778 81.8562 167.686 82.1637 167.512 82.4261C167.339 82.6885 167.092 82.8943 166.803 83.018C166.514 83.1418 166.195 83.178 165.885 83.1222C165.576 83.0663 165.29 82.921 165.062 82.7041C164.834 82.4872 164.675 82.2082 164.604 81.9018C164.533 81.5953 164.554 81.2749 164.663 80.98C164.773 80.6851 164.966 80.4289 165.22 80.2429C165.474 80.0569 165.776 79.9494 166.09 79.9337C166.308 79.9228 166.526 79.9563 166.73 80.0322C166.935 80.1081 167.122 80.2248 167.28 80.3753C167.438 80.5257 167.563 80.7066 167.649 80.9072C167.735 81.1077 167.779 81.3236 167.779 81.5417Z" fill="#263238"/>
<path d="M179.959 81.7025C179.976 81.8992 179.953 82.0972 179.892 82.285C179.831 82.4728 179.734 82.6466 179.605 82.7962C179.476 82.9459 179.319 83.0685 179.142 83.1568C178.966 83.245 178.773 83.2973 178.576 83.3105C178.378 83.3288 178.177 83.3047 177.989 83.2397C177.8 83.1747 177.627 83.0703 177.482 82.9334C177.337 82.7965 177.222 82.6303 177.146 82.4458C177.07 82.2613 177.034 82.0627 177.041 81.8633C177.02 81.6651 177.04 81.4648 177.099 81.2746C177.159 81.0844 177.256 80.9084 177.386 80.7573C177.516 80.6061 177.675 80.4831 177.855 80.3958C178.034 80.3084 178.229 80.2585 178.428 80.2492C178.627 80.2399 178.826 80.2713 179.012 80.3416C179.198 80.4118 179.369 80.5194 179.512 80.6577C179.655 80.796 179.769 80.9622 179.846 81.146C179.923 81.3298 179.961 81.5274 179.959 81.7266V81.7025Z" fill="#263238"/>
<path d="M165.712 85.6742C164.326 85.6742 162.996 85.1239 162.014 84.1441C161.033 83.1642 160.481 81.835 160.478 80.4482C160.478 76.8946 164.145 76.8946 165.712 76.8946C167.28 76.8946 170.938 76.8946 170.938 80.4482C170.936 81.8336 170.385 83.1616 169.405 84.1412C168.426 85.1208 167.098 85.6721 165.712 85.6742ZM165.712 77.7146C162.496 77.7146 161.307 78.5186 161.307 80.4482C161.307 81.621 161.772 82.7458 162.602 83.5751C163.431 84.4044 164.556 84.8702 165.729 84.8702C166.901 84.8702 168.026 84.4044 168.855 83.5751C169.685 82.7458 170.151 81.621 170.151 80.4482C170.118 78.4784 168.88 77.7146 165.712 77.7146Z" fill="#455A64"/>
<path d="M178.986 85.6742C177.6 85.6742 176.27 85.1239 175.288 84.1441C174.307 83.1642 173.755 81.835 173.752 80.4482C173.752 76.8946 177.419 76.8946 178.986 76.8946C180.554 76.8946 184.212 76.8946 184.212 80.4482C184.21 81.8336 183.659 83.1616 182.679 84.1412C181.7 85.1208 180.372 85.6721 178.986 85.6742ZM178.986 77.7146C175.819 77.7146 174.581 78.5186 174.581 80.4482C174.581 81.621 175.046 82.7458 175.876 83.5751C176.705 84.4044 177.83 84.8702 179.003 84.8702C180.175 84.8702 181.3 84.4044 182.129 83.5751C182.959 82.7458 183.425 81.621 183.425 80.4482C183.392 78.4784 182.154 77.7146 178.986 77.7146Z" fill="#455A64"/>
<path d="M171.75 78.7598L172.008 88.5284L177.145 86.9365L171.75 78.7598Z" fill="#F28F8F"/>
<path d="M166.782 98.3372C163.051 97.8468 155.373 95.6438 154.175 92.6047C154.657 94.1406 155.597 95.4927 156.868 96.48C159.16 98.4498 166.782 100.661 166.782 100.661V98.3372Z" fill="#F28F8F"/>
<path d="M166.967 74.0162L163.558 76.0986C163.289 75.6306 163.211 75.0771 163.34 74.5531C163.469 74.0291 163.794 73.5748 164.249 73.2846C164.474 73.1481 164.724 73.0587 164.985 73.0216C165.245 72.9846 165.51 73.0008 165.764 73.0692C166.018 73.1376 166.256 73.2567 166.463 73.4195C166.669 73.5823 166.841 73.7853 166.967 74.0162Z" fill="#263238"/>
<path d="M180.836 76.3318L177.041 75.0052C177.114 74.7537 177.238 74.5198 177.406 74.3181C177.573 74.1163 177.779 73.9508 178.013 73.8319C178.246 73.7129 178.501 73.6429 178.763 73.6262C179.024 73.6095 179.287 73.6465 179.533 73.7348C180.042 73.9177 180.461 74.2894 180.704 74.7728C180.946 75.2563 180.993 75.8145 180.836 76.3318Z" fill="#263238"/>
<path d="M170.528 80.8663C170.474 80.8663 170.42 80.8555 170.37 80.8344C170.319 80.8133 170.274 80.7823 170.236 80.7434C170.197 80.7045 170.167 80.6583 170.147 80.6076C170.127 80.5569 170.117 80.5028 170.118 80.4482C170.118 79.7809 171.437 79.3468 172.627 79.3468C173.817 79.3468 174.581 79.7809 174.581 80.4482C174.556 80.5356 174.503 80.6125 174.43 80.6672C174.358 80.7219 174.269 80.7515 174.179 80.7515C174.088 80.7515 173.999 80.7219 173.927 80.6672C173.854 80.6125 173.802 80.5356 173.777 80.4482C173.777 80.3678 173.367 80.1668 172.651 80.1668C172.075 80.1546 171.502 80.2528 170.963 80.4563C170.963 80.5122 170.951 80.5676 170.929 80.619C170.907 80.6704 170.875 80.7167 170.834 80.7551C170.793 80.7935 170.745 80.8232 170.693 80.8423C170.64 80.8614 170.584 80.8696 170.528 80.8663Z" fill="#455A64"/>
<path d="M160.905 80.5126H160.856L151.667 79.7086C151.237 79.283 150.726 78.9492 150.163 78.7277L160.953 79.7246C161.061 79.7387 161.159 79.7945 161.227 79.8802C161.295 79.9658 161.326 80.0744 161.315 80.1829C161.296 80.2772 161.244 80.3619 161.169 80.4222C161.094 80.4824 161.001 80.5144 160.905 80.5126Z" fill="#455A64"/>
<path d="M123.173 90.0962C126.18 86.0762 128.23 83.0452 130.972 79.6442C132.531 77.6905 133.528 76.2916 134.992 74.2896C136.021 72.9067 136.6 71.7409 137.773 71.3148C139.042 70.7951 140.185 70.0113 141.126 69.0154C141.705 68.3751 142.242 67.6983 142.734 66.9893C144.457 64.6698 146.504 62.6093 148.812 60.8708C151.224 59.0538 153.918 57.6548 156.402 55.9262C157.881 54.8891 159.465 53.1685 157.664 51.5605C157.112 51.0953 156.451 50.7773 155.743 50.6359C151.361 49.6872 147.55 51.1907 143.265 52.2841C141.403 52.7487 139.583 53.3645 137.822 54.1253C136.955 54.4679 136.143 54.9336 135.41 55.5082C134.384 56.5419 133.544 57.7439 132.925 59.0618C131.052 62.4065 127.032 65.3974 124.218 68.0425C120.93 71.1379 117.987 73.976 114.232 77.385C110.856 80.4643 107.551 83.2944 104.456 86.6551C101.891 89.4289 102.848 91.5997 103.185 92.3555C105.276 96.6488 107.615 98.1925 110.421 100.854C115.245 105.461 131.928 118.719 137.452 123.1C138.639 124.033 139.571 125.249 140.161 126.638L141.223 129.09C147.526 130.248 151.731 120.785 146.513 109.392C145.649 107.55 144.329 105.959 142.678 104.769C136.085 99.9694 123.173 90.0962 123.173 90.0962Z" fill="#FFA8A7"/>
<path d="M123.173 90.0962C121.166 92.5643 118.493 94.4035 115.47 95.3946C115.47 95.3946 119.49 96.4237 124.998 91.4791L123.173 90.0962Z" fill="#F28F8F"/>
<path d="M204.907 148.668L203.878 147.783C203.725 147.682 203.549 147.618 203.366 147.597C203.183 147.576 202.998 147.599 202.825 147.663L191.658 150.702C191.095 150.889 190.58 151.196 190.147 151.601C189.714 152.007 189.373 152.501 189.149 153.049L181.109 176.229C181.012 176.418 180.974 176.631 181 176.842C181.026 177.053 181.114 177.251 181.254 177.411L182.315 178.327C182.47 178.434 182.648 178.501 182.834 178.523C183.02 178.546 183.209 178.523 183.384 178.456L194.568 175.417C195.131 175.229 195.646 174.922 196.079 174.517C196.512 174.112 196.852 173.618 197.076 173.069C198.684 168.51 203.508 154.448 205.116 149.89C205.309 149.319 205.213 148.885 204.907 148.668Z" fill="#455A64"/>
<path d="M182.162 177.121L190.202 153.942C190.426 153.393 190.766 152.9 191.199 152.496C191.632 152.092 192.148 151.787 192.711 151.602L203.87 148.563C204.907 148.282 205.478 148.877 205.108 149.89C203.5 154.448 198.676 168.51 197.068 173.069C196.844 173.618 196.504 174.112 196.071 174.517C195.638 174.922 195.123 175.229 194.56 175.417L183.4 178.488C182.371 178.729 181.817 178.134 182.162 177.121Z" fill="#19D773"/>
<path d="M191.497 152.245C190.916 152.685 190.466 153.274 190.194 153.95L182.154 177.121C182.062 177.305 182.024 177.511 182.044 177.716C182.064 177.921 182.141 178.116 182.267 178.279L181.27 177.427C181.127 177.269 181.036 177.071 181.009 176.86C180.981 176.648 181.019 176.434 181.117 176.245L189.157 153.066C189.411 152.435 189.824 151.881 190.355 151.458L191.497 152.245Z" fill="#37474F"/>
<path d="M201.844 159.232C201.04 161.588 198.25 163.164 193.635 164.257C189.02 165.351 186.472 170.247 187.203 171.734C187.935 173.222 195.396 174.613 198.379 174.187C201.362 173.76 204.353 169.451 205.261 168.116C206.17 166.782 207.215 157.471 206.258 156.193C205.301 154.915 203.283 155.116 203.283 155.116L201.844 159.232Z" fill="#F28F8F"/>
</svg>
